{"accessors":
    [
        {"name":"支道1_平面.004-Mesh_0_positions","componentType":5126,"count":4,"min":[-2.2015628814697266,0,6.76085090637207],"max":[-1.2015630006790161,0,22.08085060119629],"type":"VEC3","bufferView":0,"byteOffset":0},
        {"name":"支道1_平面.004-Mesh_0_normals","componentType":5126,"count":4,"min":[0,1,0],"max":[0,1,0],"type":"VEC3","bufferView":1,"byteOffset":0},
        {"name":"支道1_平面.004-Mesh_0_texcoords","componentType":5126,"count":4,"min":[0,0],"max":[1,1],"type":"VEC2","bufferView":2,"byteOffset":0},
        {"name":"支道1_平面.004-Mesh_0_indices","componentType":5123,"count":6,"min":[0],"max":[3],"type":"SCALAR","bufferView":3,"byteOffset":0},
        {"name":"干道1_平面.005-Mesh_0_positions","componentType":5126,"count":8,"min":[-44.41183853149414,0,-24.79800033569336],"max":[-25.804744720458984,0,22.082000732421875],"type":"VEC3","bufferView":0,"byteOffset":48},
        {"name":"干道1_平面.005-Mesh_0_normals","componentType":5126,"count":8,"min":[0,1,0],"max":[0,1,0],"type":"VEC3","bufferView":1,"byteOffset":48},
        {"name":"干道1_平面.005-Mesh_0_texcoords","componentType":5126,"count":8,"min":[0,0],"max":[1,1],"type":"VEC2","bufferView":2,"byteOffset":32},
        {"name":"干道1_平面.005-Mesh_0_indices","componentType":5123,"count":12,"min":[0],"max":[7],"type":"SCALAR","bufferView":3,"byteOffset":12},
        {"name":"支道2_平面.012-Mesh_0_positions","componentType":5126,"count":45,"min":[15.854734420776367,-0.10740300267934799,-10.82309341430664],"max":[35.82051467895508,0.042660001665353775,-5.60763692855835],"type":"VEC3","bufferView":0,"byteOffset":144},
        {"name":"支道2_平面.012-Mesh_0_normals","componentType":5126,"count":45,"min":[-0.04830048233270645,0.9912889003753662,-0.05059904232621193],"max":[0.021799586713314056,1,0.13029853999614716],"type":"VEC3","bufferView":1,"byteOffset":144},
        {"name":"支道2_平面.012-Mesh_0_texcoords","componentType":5126,"count":45,"min":[0,0],"max":[1,1],"type":"VEC2","bufferView":2,"byteOffset":96},
        {"name":"支道2_平面.012-Mesh_0_indices","componentType":5123,"count":51,"min":[0],"max":[44],"type":"SCALAR","bufferView":3,"byteOffset":36},
        {"name":"平面.001_平面-Mesh_0_positions","componentType":5126,"count":11,"min":[-24.387454986572266,0,8.642671585083008],"max":[-6.387454986572266,0,17.642671585083008],"type":"VEC3","bufferView":0,"byteOffset":684},
        {"name":"平面.001_平面-Mesh_0_normals","componentType":5126,"count":11,"min":[0,1,0],"max":[0,1,0],"type":"VEC3","bufferView":1,"byteOffset":684},
        {"name":"平面.001_平面-Mesh_0_texcoords","componentType":5126,"count":11,"min":[0,0],"max":[1,1],"type":"VEC2","bufferView":2,"byteOffset":456},
        {"name":"平面.001_平面-Mesh_0_indices","componentType":5123,"count":27,"min":[0],"max":[10],"type":"SCALAR","bufferView":3,"byteOffset":140},
        {"name":"干道2_平面.003-Mesh_0_positions","componentType":5126,"count":21,"min":[-25.91996192932129,0,-21.168842315673828],"max":[31.7478084564209,0,7.538764953613281],"type":"VEC3","bufferView":0,"byteOffset":816},
        {"name":"干道2_平面.003-Mesh_0_normals","componentType":5126,"count":21,"min":[0,1,0],"max":[0,1,0],"type":"VEC3","bufferView":1,"byteOffset":816},
        {"name":"干道2_平面.003-Mesh_0_texcoords","componentType":5126,"count":21,"min":[0,0],"max":[1,1],"type":"VEC2","bufferView":2,"byteOffset":544},
        {"name":"干道2_平面.003-Mesh_0_indices","componentType":5123,"count":45,"min":[0],"max":[20],"type":"SCALAR","bufferView":3,"byteOffset":196},
        {"name":"建筑1_Cube-Mesh_0_positions","componentType":5126,"count":24,"min":[-20.48861312866211,0,11.16749382019043],"max":[-6.488612174987793,2,16.16749382019043],"type":"VEC3","bufferView":0,"byteOffset":1068},{"name":"建筑1_Cube-Mesh_0_normals","componentType":5126,"count":24,"min":[-1,-1,-1],"max":[1,1,1],"type":"VEC3","bufferView":1,"byteOffset":1068},{"name":"建筑1_Cube-Mesh_0_texcoords","componentType":5126,"count":24,"min":[0.125,0],"max":[0.875,1],"type":"VEC2","bufferView":2,"byteOffset":712},{"name":"建筑1_Cube-Mesh_0_indices","componentType":5123,"count":36,"min":[0],"max":[23],"type":"SCALAR","bufferView":3,"byteOffset":288},{"name":"立方體_立方體.002-Mesh_0_positions","componentType":5126,"count":24,"min":[5.47567081451416,0,-5.114903926849365],"max":[12.875670433044434,6.320000171661377,2.9492709636688232],"type":"VEC3","bufferView":0,"byteOffset":1356},{"name":"立方體_立方體.002-Mesh_0_normals","componentType":5126,"count":24,"min":[-1,-1,-0.9996272921562195],"max":[1,1,0.999362587928772],"type":"VEC3","bufferView":1,"byteOffset":1356},{"name":"立方體_立方體.002-Mesh_0_texcoords","componentType":5126,"count":24,"min":[0.125,0],"max":[0.875,1],"type":"VEC2","bufferView":2,"byteOffset":904},{"name":"立方體_立方體.002-Mesh_0_indices","componentType":5123,"count":36,"min":[0],"max":[23],"type":"SCALAR","bufferView":3,"byteOffset":360},{"name":"立方體.001_立方體.003-Mesh_0_positions","componentType":5126,"count":36,"min":[-1.1470919847488403,-0.01614600047469139,-5.199077129364014],"max":[4.177102088928223,4.320000171661377,1.916543960571289],"type":"VEC3","bufferView":0,"byteOffset":1644},{"name":"立方體.001_立方體.003-Mesh_0_normals","componentType":5126,"count":36,"min":[-0.998890221118927,-0.9999961256980896,-0.998890221118927],"max":[0.999633252620697,1,0.998890221118927],"type":"VEC3","bufferView":1,"byteOffset":1644},{"name":"立方體.001_立方體.003-Mesh_0_texcoords","componentType":5126,"count":36,"min":[0.125,0],"max":[0.875,1],"type":"VEC2","bufferView":2,"byteOffset":1096},{"name":"立方體.001_立方體.003-Mesh_0_indices","componentType":5123,"count":60,"min":[0],"max":[35],"type":"SCALAR","bufferView":3,"byteOffset":432},{"name":"立方體.002_立方體.004-Mesh_0_positions","componentType":5126,"count":24,"min":[-1.074718952178955,0,-8.719927787780762],"max":[1.1252809762954712,5.880000114440918,-7.719927787780762],"type":"VEC3","bufferView":0,"byteOffset":2076},{"name":"立方體.002_立方體.004-Mesh_0_normals","componentType":5126,"count":24,"min":[-1,-1,-1],"max":[1,1,1],"type":"VEC3","bufferView":1,"byteOffset":2076},{"name":"立方體.002_立方體.004-Mesh_0_texcoords","componentType":5126,"count":24,"min":[0.125,0],"max":[0.875,1],"type":"VEC2","bufferView":2,"byteOffset":1384},{"name":"立方體.002_立方體.004-Mesh_0_indices","componentType":5123,"count":36,"min":[0],"max":[23],"type":"SCALAR","bufferView":3,"byteOffset":552},{"name":"立方體.003_立方體.006-Mesh_0_positions","componentType":5126,"count":24,"min":[1.9838910102844238,0,-8.713353157043457],"max":[4.1838908195495605,5.880000114440918,-7.713353157043457],"type":"VEC3","bufferView":0,"byteOffset":2364},{"name":"立方體.003_立方體.006-Mesh_0_normals","componentType":5126,"count":24,"min":[-1,-1,-1],"max":[1,1,1],"type":"VEC3","bufferView":1,"byteOffset":2364},{"name":"立方體.003_立方體.006-Mesh_0_texcoords","componentType":5126,"count":24,"min":[0.125,0],"max":[0.875,1],"type":"VEC2","bufferView":2,"byteOffset":1576},{"name":"立方體.003_立方體.006-Mesh_0_indices","componentType":5123,"count":36,"min":[0],"max":[23],"type":"SCALAR","bufferView":3,"byteOffset":624},{"name":"立方體.005_立方體.008-Mesh_0_positions","componentType":5126,"count":24,"min":[5.400914192199707,0,-8.894533157348633],"max":[7.600914001464844,3.0199999809265137,-6.494534015655518],"type":"VEC3","bufferView":0,"byteOffset":2652},{"name":"立方體.005_立方體.008-Mesh_0_normals","componentType":5126,"count":24,"min":[-1,-1,-1],"max":[1,1,1],"type":"VEC3","bufferView":1,"byteOffset":2652},{"name":"立方體.005_立方體.008-Mesh_0_texcoords","componentType":5126,"count":24,"min":[0.125,0],"max":[0.875,1],"type":"VEC2","bufferView":2,"byteOffset":1768},{"name":"立方體.005_立方體.008-Mesh_0_indices","componentType":5123,"count":36,"min":[0],"max":[23],"type":"SCALAR","bufferView":3,"byteOffset":696},{"name":"立方體.006_立方體.009-Mesh_0_positions","componentType":5126,"count":24,"min":[8.289767265319824,0,-8.265583992004395],"max":[10.718377113342285,3.200000047683716,-7.194825172424316],"type":"VEC3","bufferView":0,"byteOffset":2940},{"name":"立方體.006_立方體.009-Mesh_0_normals","componentType":5126,"count":24,"min":[-0.9995588660240173,-1,-0.9995588660240173],"max":[0.9995588660240173,1,0.9995588660240173],"type":"VEC3","bufferView":1,"byteOffset":2940},{"name":"立方體.006_立方體.009-Mesh_0_texcoords","componentType":5126,"count":24,"min":[0.125,0],"max":[0.875,1],"type":"VEC2","bufferView":2,"byteOffset":1960},{"name":"立方體.006_立方體.009-Mesh_0_indices","componentType":5123,"count":36,"min":[0],"max":[23],"type":"SCALAR","bufferView":3,"byteOffset":768},{"name":"立方體.007_立方體.010-Mesh_0_positions","componentType":5126,"count":24,"min":[11.075838088989258,0,-8.283073425292969],"max":[13.075838088989258,2.4000000953674316,-6.683073043823242],"type":"VEC3","bufferView":0,"byteOffset":3228},{"name":"立方體.007_立方體.010-Mesh_0_normals","componentType":5126,"count":24,"min":[-1,-1,-1],"max":[1,1,1],"type":"VEC3","bufferView":1,"byteOffset":3228},{"name":"立方體.007_立方體.010-Mesh_0_texcoords","componentType":5126,"count":24,"min":[0.125,0],"max":[0.875,1],"type":"VEC2","bufferView":2,"byteOffset":2152},{"name":"立方體.007_立方體.010-Mesh_0_indices","componentType":5123,"count":36,"min":[0],"max":[23],"type":"SCALAR","bufferView":3,"byteOffset":840},{"name":"立方體.004_立方體.007-Mesh_0_positions","componentType":5126,"count":24,"min":[-23.995697021484375,0,-8.284843444824219],"max":[-17.230010986328125,4.599999904632568,1.3794670104980469],"type":"VEC3","bufferView":0,"byteOffset":3516},{"name":"立方體.004_立方體.007-Mesh_0_normals","componentType":5126,"count":24,"min":[-0.7157039046287537,-1,-0.7157039046287537],"max":[0.9999405741691589,1,0.6984038352966309],"type":"VEC3","bufferView":1,"byteOffset":3516},{"name":"立方體.004_立方體.007-Mesh_0_texcoords","componentType":5126,"count":24,"min":[0.125,0],"max":[0.875,1],"type":"VEC2","bufferView":2,"byteOffset":2344},{"name":"立方體.004_立方體.007-Mesh_0_indices","componentType":5123,"count":36,"min":[0],"max":[23],"type":"SCALAR","bufferView":3,"byteOffset":912},{"name":"立方體.008_立方體.011-Mesh_0_positions","componentType":5126,"count":24,"min":[-9.211524963378906,0,-3.09348201751709],"max":[-5.172961235046387,5.599999904632568,-1.6947989463806152],"type":"VEC3","bufferView":0,"byteOffset":3804},{"name":"立方體.008_立方體.011-Mesh_0_normals","componentType":5126,"count":24,"min":[-0.979219377040863,-1,-0.979219377040863],"max":[0.979219377040863,1,0.979219377040863],"type":"VEC3","bufferView":1,"byteOffset":3804},{"name":"立方體.008_立方體.011-Mesh_0_texcoords","componentType":5126,"count":24,"min":[0.125,0],"max":[0.875,1],"type":"VEC2","bufferView":2,"byteOffset":2536},{"name":"立方體.008_立方體.011-Mesh_0_indices","componentType":5123,"count":36,"min":[0],"max":[23],"type":"SCALAR","bufferView":3,"byteOffset":984},{"name":"立方體.009_立方體.012-Mesh_0_positions","componentType":5126,"count":24,"min":[-9.801527976989746,0,-0.3872140049934387],"max":[-7.357183933258057,4.811645984649658,2.5436019897460938],"type":"VEC3","bufferView":0,"byteOffset":4092},{"name":"立方體.009_立方體.012-Mesh_0_normals","componentType":5126,"count":24,"min":[-0.9569326639175415,-0.9999595284461975,-0.9998307228088379],"max":[0.8141117095947266,0.9999595284461975,0.5807083249092102],"type":"VEC3","bufferView":1,"byteOffset":4092},{"name":"立方體.009_立方體.012-Mesh_0_texcoords","componentType":5126,"count":24,"min":[0.125,0],"max":[0.875,1],"type":"VEC2","bufferView":2,"byteOffset":2728},{"name":"立方體.009_立方體.012-Mesh_0_indices","componentType":5123,"count":36,"min":[0],"max":[23],"type":"SCALAR","bufferView":3,"byteOffset":1056},{"name":"立方體.010_立方體.013-Mesh_0_positions","componentType":5126,"count":24,"min":[-15.786931991577148,0,-8.745585441589355],"max":[-11.786931991577148,1.399999976158142,3.2544150352478027],"type":"VEC3","bufferView":0,"byteOffset":4380},{"name":"立方體.010_立方體.013-Mesh_0_normals","componentType":5126,"count":24,"min":[-1,-1,-1],"max":[1,1,1],"type":"VEC3","bufferView":1,"byteOffset":4380},{"name":"立方體.010_立方體.013-Mesh_0_texcoords","componentType":5126,"count":24,"min":[0.125,0],"max":[0.875,1],"type":"VEC2","bufferView":2,"byteOffset":2920},{"name":"立方體.010_立方體.013-Mesh_0_indices","componentType":5123,"count":36,"min":[0],"max":[23],"type":"SCALAR","bufferView":3,"byteOffset":1128},{"name":"立方體.011_立方體.014-Mesh_0_positions","componentType":5126,"count":80,"min":[-10.502483367919922,0,-10.522960662841797],"max":[-5.302483081817627,4,-4.922959804534912],"type":"VEC3","bufferView":0,"byteOffset":4668},{"name":"立方體.011_立方體.014-Mesh_0_normals","componentType":5126,"count":80,"min":[-1,-1,-1],"max":[1,1,1],"type":"VEC3","bufferView":1,"byteOffset":4668},{"name":"立方體.011_立方體.014-Mesh_0_texcoords","componentType":5126,"count":80,"min":[0.125,0],"max":[0.875,1],"type":"VEC2","bufferView":2,"byteOffset":3112},{"name":"立方體.011_立方體.014-Mesh_0_indices","componentType":5123,"count":144,"min":[0],"max":[79],"type":"SCALAR","bufferView":3,"byteOffset":1200},{"name":"建筑2_立方體-Mesh_0_positions","componentType":5126,"count":24,"min":[-0.9089159965515137,0,8.635701179504395],"max":[3.0910840034484863,2,13.635701179504395],"type":"VEC3","bufferView":0,"byteOffset":5628},{"name":"建筑2_立方體-Mesh_0_normals","componentType":5126,"count":24,"min":[-1,-1,-1],"max":[1,1,1],"type":"VEC3","bufferView":1,"byteOffset":5628},{"name":"建筑2_立方體-Mesh_0_texcoords","componentType":5126,"count":24,"min":[0.125,0],"max":[0.875,1],"type":"VEC2","bufferView":2,"byteOffset":3752},{"name":"建筑2_立方體-Mesh_0_indices","componentType":5123,"count":36,"min":[0],"max":[23],"type":"SCALAR","bufferView":3,"byteOffset":1488},{"name":"建筑3_立方體.001-Mesh_0_positions","componentType":5126,"count":24,"min":[6.345668792724609,0,11.755895614624023],"max":[18.34566879272461,9.319999694824219,19.755895614624023],"type":"VEC3","bufferView":0,"byteOffset":5916},{"name":"建筑3_立方體.001-Mesh_0_normals","componentType":5126,"count":24,"min":[-1,-1,-1],"max":[1,1,1],"type":"VEC3","bufferView":1,"byteOffset":5916},{"name":"建筑3_立方體.001-Mesh_0_texcoords","componentType":5126,"count":24,"min":[0.125,0],"max":[0.875,1],"type":"VEC2","bufferView":2,"byteOffset":3944},{"name":"建筑3_立方體.001-Mesh_0_indices","componentType":5123,"count":36,"min":[0],"max":[23],"type":"SCALAR","bufferView":3,"byteOffset":1560},{"name":"平面_平面.010-Mesh_0_positions","componentType":5126,"count":4,"min":[-26.216751098632812,0,-12.176533699035645],"max":[14.888091087341309,0,-10.085946083068848],"type":"VEC3","bufferView":0,"byteOffset":6204},{"name":"平面_平面.010-Mesh_0_normals","componentType":5126,"count":4,"min":[0,1,0],"max":[0,1,0],"type":"VEC3","bufferView":1,"byteOffset":6204},{"name":"平面_平面.010-Mesh_0_texcoords","componentType":5126,"count":4,"min":[0,0],"max":[1,1],"type":"VEC2","bufferView":2,"byteOffset":4136},{"name":"平面_平面.010-Mesh_0_indices","componentType":5123,"count":6,"min":[0],"max":[3],"type":"SCALAR","bufferView":3,"byteOffset":1632},{"name":"立方體.012_立方體.015-Mesh_0_positions","componentType":5126,"count":48,"min":[16.396759033203125,0,-4.021967887878418],"max":[28.596759796142578,3.359999895095825,23.278888702392578],"type":"VEC3","bufferView":0,"byteOffset":6252},{"name":"立方體.012_立方體.015-Mesh_0_normals","componentType":5126,"count":48,"min":[-1,-1,-1],"max":[1,1,1],"type":"VEC3","bufferView":1,"byteOffset":6252},{"name":"立方體.012_立方體.015-Mesh_0_texcoords","componentType":5126,"count":48,"min":[0.125,0],"max":[0.875,1],"type":"VEC2","bufferView":2,"byteOffset":4168},{"name":"立方體.012_立方體.015-Mesh_0_indices","componentType":5123,"count":72,"min":[0],"max":[47],"type":"SCALAR","bufferView":3,"byteOffset":1644},{"name":"立方體.013_立方體.016-Mesh_0_positions","componentType":5126,"count":48,"min":[16.822269439697266,0,-8.544709205627441],"max":[21.622268676757812,5.480000019073486,-5.744709014892578],"type":"VEC3","bufferView":0,"byteOffset":6828},{"name":"立方體.013_立方體.016-Mesh_0_normals","componentType":5126,"count":48,"min":[-1,-1,-1],"max":[1,1,1],"type":"VEC3","bufferView":1,"byteOffset":6828},{"name":"立方體.013_立方體.016-Mesh_0_texcoords","componentType":5126,"count":48,"min":[0.125,0],"max":[0.875,1],"type":"VEC2","bufferView":2,"byteOffset":4552},
        {"name":"立方體.013_立方體.016-Mesh_0_indices","componentType":5123,"count":72,"min":[0],"max":[47],"type":"SCALAR","bufferView":3,"byteOffset":1788}],
        "asset":
        {"generator":"obj2gltf","version":"2.0"},
         "buffers":[{"name":"city2","byteLength":21676,"uri":"data:application/octet-stream;base64,"}],"bufferViews":[{"name":"bufferView_0","buffer":0,"byteLength":7404,"byteOffset":0,"byteStride":12,"target":34962},{"name":"bufferView_1","buffer":0,"byteLength":7404,"byteOffset":7404,"byteStride":12,"target":34962},{"name":"bufferView_2","buffer":0,"byteLength":4936,"byteOffset":14808,"byteStride":8,"target":34962},{"name":"bufferView_3","buffer":0,"byteLength":1932,"byteOffset":19744,"target":34963}],"materials":[{"name":"None","pbrMetallicRoughness":{"baseColorFactor":[0.8,0.8,0.8,1],"metallicFactor":0,"roughnessFactor":0.5},"emissiveFactor":[0,0,0],"alphaMode":"OPAQUE","doubleSided":false},{"name":"Material","pbrMetallicRoughness":{"baseColorFactor":[0.8,0.8,0.8,1],"metallicFactor":0,"roughnessFactor":0.676000006},"emissiveFactor":[0,0,0],"alphaMode":"OPAQUE","doubleSided":false}],"meshes":
            [{"name":"支道1_平面.004-Mesh","primitives":[{"attributes":{"POSITION":0,"NORMAL":1,"TEXCOORD_0":2},"indices":3,"material":0,"mode":4}]},{"name":"干道1_平面.005-Mesh","primitives":[{"attributes":{"POSITION":4,"NORMAL":5,"TEXCOORD_0":6},"indices":7,"material":0,"mode":4}]},{"name":"支道2_平面.012-Mesh","primitives":[{"attributes":{"POSITION":8,"NORMAL":9,"TEXCOORD_0":10},"indices":11,"material":0,"mode":4}]},{"name":"平面.001_平面-Mesh","primitives":[{"attributes":{"POSITION":12,"NORMAL":13,"TEXCOORD_0":14},"indices":15,"material":0,"mode":4}]},{"name":"干道2_平面.003-Mesh","primitives":[{"attributes":{"POSITION":16,"NORMAL":17,"TEXCOORD_0":18},"indices":19,"material":0,"mode":4}]},{"name":"建筑1_Cube-Mesh","primitives":[{"attributes":{"POSITION":20,"NORMAL":21,"TEXCOORD_0":22},"indices":23,"material":1,"mode":4}]},{"name":"立方體_立方體.002-Mesh","primitives":[{"attributes":{"POSITION":24,"NORMAL":25,"TEXCOORD_0":26},"indices":27,"material":0,"mode":4}]},{"name":"立方體.001_立方體.003-Mesh","primitives":[{"attributes":{"POSITION":28,"NORMAL":29,"TEXCOORD_0":30},"indices":31,"material":0,"mode":4}]},{"name":"立方體.002_立方體.004-Mesh","primitives":[{"attributes":{"POSITION":32,"NORMAL":33,"TEXCOORD_0":34},"indices":35,"material":0,"mode":4}]},{"name":"立方體.003_立方體.006-Mesh","primitives":[{"attributes":{"POSITION":36,"NORMAL":37,"TEXCOORD_0":38},"indices":39,"material":0,"mode":4}]},{"name":"立方體.005_立方體.008-Mesh","primitives":[{"attributes":{"POSITION":40,"NORMAL":41,"TEXCOORD_0":42},"indices":43,"material":0,"mode":4}]},{"name":"立方體.006_立方體.009-Mesh","primitives":[{"attributes":{"POSITION":44,"NORMAL":45,"TEXCOORD_0":46},"indices":47,"material":0,"mode":4}]},{"name":"立方體.007_立方體.010-Mesh","primitives":[{"attributes":{"POSITION":48,"NORMAL":49,"TEXCOORD_0":50},"indices":51,"material":0,"mode":4}]},{"name":"立方體.004_立方體.007-Mesh","primitives":[{"attributes":{"POSITION":52,"NORMAL":53,"TEXCOORD_0":54},"indices":55,"material":0,"mode":4}]},{"name":"立方體.008_立方體.011-Mesh","primitives":[{"attributes":{"POSITION":56,"NORMAL":57,"TEXCOORD_0":58},"indices":59,"material":0,"mode":4}]},{"name":"立方體.009_立方體.012-Mesh","primitives":[{"attributes":{"POSITION":60,"NORMAL":61,"TEXCOORD_0":62},"indices":63,"material":0,"mode":4}]},{"name":"立方體.010_立方體.013-Mesh","primitives":[{"attributes":{"POSITION":64,"NORMAL":65,"TEXCOORD_0":66},"indices":67,"material":0,"mode":4}]},{"name":"立方體.011_立方體.014-Mesh","primitives":[{"attributes":{"POSITION":68,"NORMAL":69,"TEXCOORD_0":70},"indices":71,"material":0,"mode":4}]},{"name":"建筑2_立方體-Mesh","primitives":[{"attributes":{"POSITION":72,"NORMAL":73,"TEXCOORD_0":74},"indices":75,"material":0,"mode":4}]},{"name":"建筑3_立方體.001-Mesh","primitives":[{"attributes":{"POSITION":76,"NORMAL":77,"TEXCOORD_0":78},"indices":79,"material":0,"mode":4}]},{"name":"平面_平面.010-Mesh","primitives":[{"attributes":{"POSITION":80,"NORMAL":81,"TEXCOORD_0":82},"indices":83,"material":0,"mode":4}]},{"name":"立方體.012_立方體.015-Mesh","primitives":[{"attributes":{"POSITION":84,"NORMAL":85,"TEXCOORD_0":86},"indices":87,"material":0,"mode":4}]},{"name":"立方體.013_立方體.016-Mesh","primitives":[{"attributes":{"POSITION":88,"NORMAL":89,"TEXCOORD_0":90},"indices":91,"material":0,"mode":4}]}],
        "nodes":
          [
              {"name":"支道1_平面.004","mesh":0},{"name":"干道1_平面.005","mesh":1},{"name":"支道2_平面.012","mesh":2},{"name":"平面.001_平面","mesh":3},{"name":"干道2_平面.003","mesh":4},{"name":"建筑1_Cube","mesh":5},{"name":"立方體_立方體.002","mesh":6},{"name":"立方體.001_立方體.003","mesh":7},{"name":"立方體.002_立方體.004","mesh":8},{"name":"立方體.003_立方體.006","mesh":9},{"name":"立方體.005_立方體.008","mesh":10},{"name":"立方體.006_立方體.009","mesh":11},{"name":"立方體.007_立方體.010","mesh":12},{"name":"立方體.004_立方體.007","mesh":13},{"name":"立方體.008_立方體.011","mesh":14},{"name":"立方體.009_立方體.012","mesh":15},{"name":"立方體.010_立方體.013","mesh":16},{"name":"立方體.011_立方體.014","mesh":17},{"name":"建筑2_立方體","mesh":18},{"name":"建筑3_立方體.001","mesh":19},{"name":"平面_平面.010","mesh":20},{"name":"立方體.012_立方體.015","mesh":21},{"name":"立方體.013_立方體.016","mesh":22}],"scene":0,"scenes":[{"nodes":[0,1,2,3,4,5,6,7,8,9,10,11,12,13,14,15,16,17,18,19,20,21,22]}
              ]
}