{"accessors":[{"name":"蘇珊猴-Mesh_0_positions","componentType":5126,"count":1966,"min":[-1.3671879768371582,-0.984375,-0.8515620231628418],"max":[1.3671879768371582,0.984375,0.8515620231628418],"type":"VEC3","bufferView":0,"byteOffset":0},{"name":"蘇珊猴-Mesh_0_normals","componentType":5126,"count":1966,"min":[-1,-0.99240642786026,-0.9864755868911743],"max":[1,0.9970178604125977,1],"type":"VEC3","bufferView":1,"byteOffset":0},{"name":"蘇珊猴-Mesh_0_texcoords","componentType":5126,"count":1966,"min":[0.00014400000509340316,0.09514900296926498],"max":[0.9998559951782227,0.9998559951782227],"type":"VEC2","bufferView":2,"byteOffset":0},{"name":"蘇珊猴-Mesh_0_indices","componentType":5123,"count":2904,"min":[0],"max":[1965],"type":"SCALAR","bufferView":3,"byteOffset":0}],"asset":{"generator":"obj2gltf","version":"2.0"},"buffers":[{"name":"monkey","byteLength":68720,"uri":"data:application/octet-stream;base64,"}],"bufferViews":[{"name":"bufferView_0","buffer":0,"byteLength":23592,"byteOffset":0,"byteStride":12,"target":34962},{"name":"bufferView_1","buffer":0,"byteLength":23592,"byteOffset":23592,"byteStride":12,"target":34962},{"name":"bufferView_2","buffer":0,"byteLength":15728,"byteOffset":47184,"byteStride":8,"target":34962},{"name":"bufferView_3","buffer":0,"byteLength":5808,"byteOffset":62912,"target":34963}],"materials":[{"name":"None","pbrMetallicRoughness":{"baseColorFactor":[0.8,0.8,0.8,1],"metallicFactor":0,"roughnessFactor":0.5},"emissiveFactor":[0,0,0],"alphaMode":"OPAQUE","doubleSided":false}],"meshes":[{"name":"蘇珊猴-Mesh","primitives":[{"attributes":{"POSITION":0,"NORMAL":1,"TEXCOORD_0":2},"indices":3,"material":0,"mode":4}]}],"nodes":[{"name":"蘇珊猴","mesh":0}],"scene":0,"scenes":[{"nodes":[0]}]}